<mxfile host="Electron" modified="2023-05-27T20:07:05.263Z" agent="Mozilla/5.0 (X11; Linux x86_64) AppleWebKit/537.36 (KHTML, like Gecko) draw.io/21.2.8 Chrome/112.0.5615.165 Electron/24.2.0 Safari/537.36" etag="ukLgFoh73J1DgEY2nuls" version="21.2.8" type="device">
  <diagram name="Page-1" id="gYwv0pO_W2ZxfAE3Szi0">
    <mxGraphModel dx="3586" dy="3026" grid="1" gridSize="10" guides="1" tooltips="1" connect="1" arrows="1" fold="1" page="1" pageScale="1" pageWidth="850" pageHeight="1100" math="0" shadow="0">
      <root>
        <mxCell id="0" />
        <mxCell id="1" parent="0" />
        <mxCell id="DJHJPJEQN-9kXBu37Lcy-3" value="FS-IA10B" style="rounded=0;whiteSpace=wrap;html=1;" parent="1" vertex="1">
          <mxGeometry x="30" y="70" width="120" height="170" as="geometry" />
        </mxCell>
        <mxCell id="WVWYZ7rFV6EcUASi3WDG-2" style="edgeStyle=orthogonalEdgeStyle;rounded=0;orthogonalLoop=1;jettySize=auto;html=1;exitX=0.5;exitY=0;exitDx=0;exitDy=0;entryX=0.5;entryY=1;entryDx=0;entryDy=0;startArrow=classic;startFill=1;" edge="1" parent="1" source="DJHJPJEQN-9kXBu37Lcy-4" target="WVWYZ7rFV6EcUASi3WDG-1">
          <mxGeometry relative="1" as="geometry" />
        </mxCell>
        <mxCell id="DJHJPJEQN-9kXBu37Lcy-4" value="&lt;div&gt;Arduino Mega&lt;/div&gt;" style="rounded=0;whiteSpace=wrap;html=1;" parent="1" vertex="1">
          <mxGeometry x="270" y="60" width="190" height="270" as="geometry" />
        </mxCell>
        <mxCell id="DJHJPJEQN-9kXBu37Lcy-7" value="" style="endArrow=classic;startArrow=classic;html=1;rounded=0;" parent="1" edge="1">
          <mxGeometry width="50" height="50" relative="1" as="geometry">
            <mxPoint x="150" y="85" as="sourcePoint" />
            <mxPoint x="270" y="85" as="targetPoint" />
          </mxGeometry>
        </mxCell>
        <mxCell id="DJHJPJEQN-9kXBu37Lcy-8" value="" style="endArrow=classic;startArrow=classic;html=1;rounded=0;entryX=0.005;entryY=0.151;entryDx=0;entryDy=0;entryPerimeter=0;" parent="1" target="DJHJPJEQN-9kXBu37Lcy-4" edge="1">
          <mxGeometry width="50" height="50" relative="1" as="geometry">
            <mxPoint x="150" y="100" as="sourcePoint" />
            <mxPoint x="266" y="100" as="targetPoint" />
          </mxGeometry>
        </mxCell>
        <mxCell id="DJHJPJEQN-9kXBu37Lcy-9" value="&lt;font style=&quot;font-size: 8px;&quot;&gt;VCC +&lt;/font&gt;" style="text;html=1;strokeColor=none;fillColor=none;align=center;verticalAlign=middle;whiteSpace=wrap;rounded=0;" parent="1" vertex="1">
          <mxGeometry x="180" y="70" width="60" height="10" as="geometry" />
        </mxCell>
        <mxCell id="DJHJPJEQN-9kXBu37Lcy-10" value="&lt;font style=&quot;font-size: 8px;&quot;&gt;VCC -&lt;br&gt;&lt;/font&gt;" style="text;html=1;strokeColor=none;fillColor=none;align=center;verticalAlign=middle;whiteSpace=wrap;rounded=0;" parent="1" vertex="1">
          <mxGeometry x="180" y="90" width="60" height="10" as="geometry" />
        </mxCell>
        <mxCell id="DJHJPJEQN-9kXBu37Lcy-11" value="" style="endArrow=classic;html=1;rounded=0;entryX=-0.008;entryY=0.592;entryDx=0;entryDy=0;entryPerimeter=0;" parent="1" edge="1">
          <mxGeometry width="50" height="50" relative="1" as="geometry">
            <mxPoint x="150" y="230" as="sourcePoint" />
            <mxPoint x="268.48" y="229.84000000000003" as="targetPoint" />
          </mxGeometry>
        </mxCell>
        <mxCell id="DJHJPJEQN-9kXBu37Lcy-12" value="" style="endArrow=classic;html=1;rounded=0;entryX=-0.008;entryY=0.592;entryDx=0;entryDy=0;entryPerimeter=0;" parent="1" edge="1">
          <mxGeometry width="50" height="50" relative="1" as="geometry">
            <mxPoint x="152" y="210" as="sourcePoint" />
            <mxPoint x="270" y="210" as="targetPoint" />
          </mxGeometry>
        </mxCell>
        <mxCell id="DJHJPJEQN-9kXBu37Lcy-13" value="" style="endArrow=classic;html=1;rounded=0;entryX=-0.008;entryY=0.592;entryDx=0;entryDy=0;entryPerimeter=0;" parent="1" edge="1">
          <mxGeometry width="50" height="50" relative="1" as="geometry">
            <mxPoint x="150" y="190" as="sourcePoint" />
            <mxPoint x="268" y="190" as="targetPoint" />
          </mxGeometry>
        </mxCell>
        <mxCell id="DJHJPJEQN-9kXBu37Lcy-14" value="" style="endArrow=classic;html=1;rounded=0;entryX=-0.008;entryY=0.592;entryDx=0;entryDy=0;entryPerimeter=0;" parent="1" edge="1">
          <mxGeometry width="50" height="50" relative="1" as="geometry">
            <mxPoint x="152" y="170" as="sourcePoint" />
            <mxPoint x="270" y="170" as="targetPoint" />
          </mxGeometry>
        </mxCell>
        <mxCell id="DJHJPJEQN-9kXBu37Lcy-15" value="" style="endArrow=classic;html=1;rounded=0;entryX=-0.008;entryY=0.592;entryDx=0;entryDy=0;entryPerimeter=0;" parent="1" edge="1">
          <mxGeometry width="50" height="50" relative="1" as="geometry">
            <mxPoint x="151" y="150" as="sourcePoint" />
            <mxPoint x="269" y="150" as="targetPoint" />
          </mxGeometry>
        </mxCell>
        <mxCell id="DJHJPJEQN-9kXBu37Lcy-16" value="" style="endArrow=classic;html=1;rounded=0;entryX=-0.008;entryY=0.592;entryDx=0;entryDy=0;entryPerimeter=0;" parent="1" edge="1">
          <mxGeometry width="50" height="50" relative="1" as="geometry">
            <mxPoint x="152" y="130" as="sourcePoint" />
            <mxPoint x="270" y="130" as="targetPoint" />
          </mxGeometry>
        </mxCell>
        <mxCell id="DJHJPJEQN-9kXBu37Lcy-18" value="&lt;font style=&quot;font-size: 8px;&quot;&gt;CH1 S | PWM 2&lt;/font&gt;" style="text;html=1;strokeColor=none;fillColor=none;align=center;verticalAlign=middle;whiteSpace=wrap;rounded=0;" parent="1" vertex="1">
          <mxGeometry x="180" y="220" width="60" height="10" as="geometry" />
        </mxCell>
        <mxCell id="DJHJPJEQN-9kXBu37Lcy-19" value="&lt;font style=&quot;font-size: 8px;&quot;&gt;CH2 S | PWM 3&lt;br&gt;&lt;/font&gt;" style="text;html=1;strokeColor=none;fillColor=none;align=center;verticalAlign=middle;whiteSpace=wrap;rounded=0;" parent="1" vertex="1">
          <mxGeometry x="180" y="200" width="60" height="10" as="geometry" />
        </mxCell>
        <mxCell id="DJHJPJEQN-9kXBu37Lcy-21" value="&lt;font style=&quot;font-size: 8px;&quot;&gt;CH3 S | PWM 5&lt;br&gt;&lt;/font&gt;" style="text;html=1;strokeColor=none;fillColor=none;align=center;verticalAlign=middle;whiteSpace=wrap;rounded=0;" parent="1" vertex="1">
          <mxGeometry x="180" y="180" width="60" height="10" as="geometry" />
        </mxCell>
        <mxCell id="DJHJPJEQN-9kXBu37Lcy-22" value="&lt;font style=&quot;font-size: 8px;&quot;&gt;CH6 S | DIG 52&lt;br&gt;&lt;/font&gt;" style="text;html=1;strokeColor=none;fillColor=none;align=center;verticalAlign=middle;whiteSpace=wrap;rounded=0;" parent="1" vertex="1">
          <mxGeometry x="180" y="120" width="60" height="10" as="geometry" />
        </mxCell>
        <mxCell id="DJHJPJEQN-9kXBu37Lcy-23" value="&lt;font style=&quot;font-size: 8px;&quot;&gt;CH4 S | PWM 4&lt;br&gt;&lt;/font&gt;" style="text;html=1;strokeColor=none;fillColor=none;align=center;verticalAlign=middle;whiteSpace=wrap;rounded=0;" parent="1" vertex="1">
          <mxGeometry x="180" y="160" width="60" height="10" as="geometry" />
        </mxCell>
        <mxCell id="DJHJPJEQN-9kXBu37Lcy-24" value="&lt;font style=&quot;font-size: 8px;&quot;&gt;CH5 S | DIG 53&lt;br&gt;&lt;/font&gt;" style="text;html=1;strokeColor=none;fillColor=none;align=center;verticalAlign=middle;whiteSpace=wrap;rounded=0;" parent="1" vertex="1">
          <mxGeometry x="180" y="140" width="60" height="10" as="geometry" />
        </mxCell>
        <mxCell id="DJHJPJEQN-9kXBu37Lcy-47" value="Servo (Aileron)" style="rounded=0;whiteSpace=wrap;html=1;" parent="1" vertex="1">
          <mxGeometry x="530" y="30" width="80" height="40" as="geometry" />
        </mxCell>
        <mxCell id="DJHJPJEQN-9kXBu37Lcy-48" value="Servo (Aileron)" style="rounded=0;whiteSpace=wrap;html=1;" parent="1" vertex="1">
          <mxGeometry x="630" y="30" width="80" height="40" as="geometry" />
        </mxCell>
        <mxCell id="DJHJPJEQN-9kXBu37Lcy-49" value="Servo (Elevator)" style="rounded=0;whiteSpace=wrap;html=1;" parent="1" vertex="1">
          <mxGeometry x="730" y="30" width="80" height="40" as="geometry" />
        </mxCell>
        <mxCell id="DJHJPJEQN-9kXBu37Lcy-50" value="Servo (Elevator)" style="rounded=0;whiteSpace=wrap;html=1;" parent="1" vertex="1">
          <mxGeometry x="830" y="30" width="80" height="40" as="geometry" />
        </mxCell>
        <mxCell id="DJHJPJEQN-9kXBu37Lcy-51" value="Servo (Rudder)" style="rounded=0;whiteSpace=wrap;html=1;" parent="1" vertex="1">
          <mxGeometry x="930" y="30" width="80" height="40" as="geometry" />
        </mxCell>
        <mxCell id="DJHJPJEQN-9kXBu37Lcy-54" value="" style="endArrow=none;html=1;rounded=0;entryX=0.5;entryY=0;entryDx=0;entryDy=0;" parent="1" edge="1" target="WVWYZ7rFV6EcUASi3WDG-7">
          <mxGeometry width="50" height="50" relative="1" as="geometry">
            <mxPoint x="570" y="10" as="sourcePoint" />
            <mxPoint x="970" y="10" as="targetPoint" />
            <Array as="points">
              <mxPoint x="570" y="10" />
              <mxPoint x="1185" y="10" />
            </Array>
          </mxGeometry>
        </mxCell>
        <mxCell id="DJHJPJEQN-9kXBu37Lcy-55" value="&lt;font style=&quot;font-size: 8px;&quot;&gt;VCC&lt;/font&gt;" style="text;html=1;strokeColor=none;fillColor=none;align=center;verticalAlign=middle;whiteSpace=wrap;rounded=0;" parent="1" vertex="1">
          <mxGeometry x="660" width="35" height="10" as="geometry" />
        </mxCell>
        <mxCell id="DJHJPJEQN-9kXBu37Lcy-56" value="" style="endArrow=classic;html=1;rounded=0;" parent="1" edge="1">
          <mxGeometry width="50" height="50" relative="1" as="geometry">
            <mxPoint x="570" y="10" as="sourcePoint" />
            <mxPoint x="569.71" y="30" as="targetPoint" />
          </mxGeometry>
        </mxCell>
        <mxCell id="DJHJPJEQN-9kXBu37Lcy-57" value="" style="endArrow=classic;html=1;rounded=0;" parent="1" edge="1">
          <mxGeometry width="50" height="50" relative="1" as="geometry">
            <mxPoint x="677.65" y="10" as="sourcePoint" />
            <mxPoint x="677.36" y="30" as="targetPoint" />
          </mxGeometry>
        </mxCell>
        <mxCell id="DJHJPJEQN-9kXBu37Lcy-58" value="" style="endArrow=classic;html=1;rounded=0;" parent="1" edge="1">
          <mxGeometry width="50" height="50" relative="1" as="geometry">
            <mxPoint x="770.14" y="10" as="sourcePoint" />
            <mxPoint x="769.85" y="30" as="targetPoint" />
          </mxGeometry>
        </mxCell>
        <mxCell id="DJHJPJEQN-9kXBu37Lcy-59" value="" style="endArrow=classic;html=1;rounded=0;" parent="1" edge="1">
          <mxGeometry width="50" height="50" relative="1" as="geometry">
            <mxPoint x="870.14" y="10" as="sourcePoint" />
            <mxPoint x="869.85" y="30" as="targetPoint" />
          </mxGeometry>
        </mxCell>
        <mxCell id="DJHJPJEQN-9kXBu37Lcy-60" value="" style="endArrow=classic;html=1;rounded=0;" parent="1" edge="1">
          <mxGeometry width="50" height="50" relative="1" as="geometry">
            <mxPoint x="970.14" y="10" as="sourcePoint" />
            <mxPoint x="969.85" y="30" as="targetPoint" />
          </mxGeometry>
        </mxCell>
        <mxCell id="DJHJPJEQN-9kXBu37Lcy-64" value="" style="endArrow=classic;html=1;rounded=0;exitX=0.5;exitY=1;exitDx=0;exitDy=0;entryX=0;entryY=0.5;entryDx=0;entryDy=0;" parent="1" source="DJHJPJEQN-9kXBu37Lcy-47" target="WVWYZ7rFV6EcUASi3WDG-7" edge="1">
          <mxGeometry width="50" height="50" relative="1" as="geometry">
            <mxPoint x="670" y="200" as="sourcePoint" />
            <mxPoint x="1090" y="90" as="targetPoint" />
            <Array as="points">
              <mxPoint x="570" y="90" />
            </Array>
          </mxGeometry>
        </mxCell>
        <mxCell id="DJHJPJEQN-9kXBu37Lcy-66" value="" style="endArrow=none;html=1;rounded=0;entryX=0.5;entryY=1;entryDx=0;entryDy=0;" parent="1" target="DJHJPJEQN-9kXBu37Lcy-48" edge="1">
          <mxGeometry width="50" height="50" relative="1" as="geometry">
            <mxPoint x="670" y="90" as="sourcePoint" />
            <mxPoint x="760" y="60" as="targetPoint" />
          </mxGeometry>
        </mxCell>
        <mxCell id="DJHJPJEQN-9kXBu37Lcy-67" value="" style="endArrow=none;html=1;rounded=0;entryX=0.5;entryY=1;entryDx=0;entryDy=0;" parent="1" edge="1">
          <mxGeometry width="50" height="50" relative="1" as="geometry">
            <mxPoint x="769.9" y="90" as="sourcePoint" />
            <mxPoint x="769.9" y="70" as="targetPoint" />
          </mxGeometry>
        </mxCell>
        <mxCell id="DJHJPJEQN-9kXBu37Lcy-68" value="" style="endArrow=none;html=1;rounded=0;entryX=0.5;entryY=1;entryDx=0;entryDy=0;" parent="1" edge="1">
          <mxGeometry width="50" height="50" relative="1" as="geometry">
            <mxPoint x="869.9" y="90" as="sourcePoint" />
            <mxPoint x="869.9" y="70" as="targetPoint" />
          </mxGeometry>
        </mxCell>
        <mxCell id="DJHJPJEQN-9kXBu37Lcy-69" value="" style="endArrow=none;html=1;rounded=0;entryX=0.5;entryY=1;entryDx=0;entryDy=0;" parent="1" edge="1">
          <mxGeometry width="50" height="50" relative="1" as="geometry">
            <mxPoint x="969.9" y="90" as="sourcePoint" />
            <mxPoint x="969.9" y="70" as="targetPoint" />
          </mxGeometry>
        </mxCell>
        <mxCell id="DJHJPJEQN-9kXBu37Lcy-70" value="" style="endArrow=classic;html=1;rounded=0;entryX=0.38;entryY=0.998;entryDx=0;entryDy=0;entryPerimeter=0;exitX=1.008;exitY=0.113;exitDx=0;exitDy=0;exitPerimeter=0;" parent="1" source="DJHJPJEQN-9kXBu37Lcy-4" target="DJHJPJEQN-9kXBu37Lcy-47" edge="1">
          <mxGeometry width="50" height="50" relative="1" as="geometry">
            <mxPoint x="460" y="110" as="sourcePoint" />
            <mxPoint x="560" y="180" as="targetPoint" />
            <Array as="points">
              <mxPoint x="560" y="90" />
            </Array>
          </mxGeometry>
        </mxCell>
        <mxCell id="DJHJPJEQN-9kXBu37Lcy-72" value="" style="endArrow=classic;html=1;rounded=0;entryX=0.38;entryY=0.998;entryDx=0;entryDy=0;entryPerimeter=0;exitX=1;exitY=0.185;exitDx=0;exitDy=0;exitPerimeter=0;" parent="1" source="DJHJPJEQN-9kXBu37Lcy-4" edge="1">
          <mxGeometry width="50" height="50" relative="1" as="geometry">
            <mxPoint x="560" y="110" as="sourcePoint" />
            <mxPoint x="660" y="70" as="targetPoint" />
            <Array as="points">
              <mxPoint x="660" y="110" />
            </Array>
          </mxGeometry>
        </mxCell>
        <mxCell id="DJHJPJEQN-9kXBu37Lcy-73" value="" style="endArrow=classic;html=1;rounded=0;entryX=0.368;entryY=0.986;entryDx=0;entryDy=0;entryPerimeter=0;exitX=1.001;exitY=0.258;exitDx=0;exitDy=0;exitPerimeter=0;" parent="1" source="DJHJPJEQN-9kXBu37Lcy-4" target="DJHJPJEQN-9kXBu37Lcy-49" edge="1">
          <mxGeometry width="50" height="50" relative="1" as="geometry">
            <mxPoint x="460" y="140" as="sourcePoint" />
            <mxPoint x="560" y="100" as="targetPoint" />
            <Array as="points">
              <mxPoint x="760" y="130" />
            </Array>
          </mxGeometry>
        </mxCell>
        <mxCell id="DJHJPJEQN-9kXBu37Lcy-75" value="" style="endArrow=classic;html=1;rounded=0;entryX=0.375;entryY=1;entryDx=0;entryDy=0;entryPerimeter=0;" parent="1" target="DJHJPJEQN-9kXBu37Lcy-50" edge="1">
          <mxGeometry width="50" height="50" relative="1" as="geometry">
            <mxPoint x="760" y="130" as="sourcePoint" />
            <mxPoint x="860" y="100" as="targetPoint" />
            <Array as="points">
              <mxPoint x="860" y="130" />
            </Array>
          </mxGeometry>
        </mxCell>
        <mxCell id="DJHJPJEQN-9kXBu37Lcy-77" value="" style="endArrow=classic;html=1;rounded=0;entryX=0.377;entryY=1.031;entryDx=0;entryDy=0;entryPerimeter=0;exitX=1.001;exitY=0.258;exitDx=0;exitDy=0;exitPerimeter=0;" parent="1" target="DJHJPJEQN-9kXBu37Lcy-51" edge="1">
          <mxGeometry width="50" height="50" relative="1" as="geometry">
            <mxPoint x="460" y="151" as="sourcePoint" />
            <mxPoint x="759" y="90" as="targetPoint" />
            <Array as="points">
              <mxPoint x="960" y="150" />
            </Array>
          </mxGeometry>
        </mxCell>
        <mxCell id="DJHJPJEQN-9kXBu37Lcy-78" value="&lt;div&gt;&lt;font style=&quot;font-size: 8px;&quot;&gt;PWM 9&lt;br&gt;&lt;/font&gt;&lt;/div&gt;" style="text;html=1;strokeColor=none;fillColor=none;align=center;verticalAlign=middle;whiteSpace=wrap;rounded=0;" parent="1" vertex="1">
          <mxGeometry x="490" y="100" width="35" height="10" as="geometry" />
        </mxCell>
        <mxCell id="DJHJPJEQN-9kXBu37Lcy-79" value="&lt;div&gt;&lt;font style=&quot;font-size: 8px;&quot;&gt;PWM 10&lt;br&gt;&lt;/font&gt;&lt;/div&gt;" style="text;html=1;strokeColor=none;fillColor=none;align=center;verticalAlign=middle;whiteSpace=wrap;rounded=0;" parent="1" vertex="1">
          <mxGeometry x="490" y="120" width="35" height="10" as="geometry" />
        </mxCell>
        <mxCell id="DJHJPJEQN-9kXBu37Lcy-80" value="&lt;div&gt;&lt;font style=&quot;font-size: 8px;&quot;&gt;PWM 11&lt;br&gt;&lt;/font&gt;&lt;/div&gt;" style="text;html=1;strokeColor=none;fillColor=none;align=center;verticalAlign=middle;whiteSpace=wrap;rounded=0;" parent="1" vertex="1">
          <mxGeometry x="490" y="140" width="35" height="10" as="geometry" />
        </mxCell>
        <mxCell id="DJHJPJEQN-9kXBu37Lcy-81" value="&lt;div&gt;&lt;font style=&quot;font-size: 8px;&quot;&gt;PWM 8&lt;br&gt;&lt;/font&gt;&lt;/div&gt;" style="text;html=1;strokeColor=none;fillColor=none;align=center;verticalAlign=middle;whiteSpace=wrap;rounded=0;" parent="1" vertex="1">
          <mxGeometry x="490" y="80" width="35" height="10" as="geometry" />
        </mxCell>
        <mxCell id="9_8oEkFlsrFl9a-Hlgpt-9" value="" style="endArrow=classic;html=1;rounded=0;exitX=0;exitY=0.444;exitDx=0;exitDy=0;exitPerimeter=0;entryX=0.004;entryY=0.842;entryDx=0;entryDy=0;entryPerimeter=0;" parent="1" target="9_8oEkFlsrFl9a-Hlgpt-7" edge="1">
          <mxGeometry width="50" height="50" relative="1" as="geometry">
            <mxPoint x="580" y="359.9200000000001" as="sourcePoint" />
            <mxPoint x="570" y="580" as="targetPoint" />
            <Array as="points">
              <mxPoint x="530" y="360" />
              <mxPoint x="530" y="580" />
            </Array>
          </mxGeometry>
        </mxCell>
        <mxCell id="9_8oEkFlsrFl9a-Hlgpt-23" value="&lt;font style=&quot;font-size: 48px;&quot;&gt;Prototype 1.2&lt;br&gt;&lt;/font&gt;" style="text;html=1;align=center;verticalAlign=middle;resizable=0;points=[];autosize=1;strokeColor=none;fillColor=none;" parent="1" vertex="1">
          <mxGeometry x="560" y="230" width="310" height="70" as="geometry" />
        </mxCell>
        <mxCell id="G0_ffEqPIUbRc6MpIxqN-1" value="&lt;font style=&quot;font-size: 8px;&quot;&gt;Antenna&lt;/font&gt;" style="rounded=1;whiteSpace=wrap;html=1;" parent="1" vertex="1">
          <mxGeometry x="-80" y="100" width="60" height="20" as="geometry" />
        </mxCell>
        <mxCell id="G0_ffEqPIUbRc6MpIxqN-2" value="&lt;font style=&quot;font-size: 8px;&quot;&gt;Antenna&lt;/font&gt;" style="rounded=1;whiteSpace=wrap;html=1;" parent="1" vertex="1">
          <mxGeometry x="-80" y="190" width="60" height="20" as="geometry" />
        </mxCell>
        <mxCell id="G0_ffEqPIUbRc6MpIxqN-3" value="" style="endArrow=none;html=1;rounded=0;fontSize=8;entryX=1;entryY=0.5;entryDx=0;entryDy=0;exitX=-0.002;exitY=0.237;exitDx=0;exitDy=0;exitPerimeter=0;" parent="1" source="DJHJPJEQN-9kXBu37Lcy-3" target="G0_ffEqPIUbRc6MpIxqN-1" edge="1">
          <mxGeometry width="50" height="50" relative="1" as="geometry">
            <mxPoint x="10" y="190" as="sourcePoint" />
            <mxPoint x="60" y="140" as="targetPoint" />
          </mxGeometry>
        </mxCell>
        <mxCell id="G0_ffEqPIUbRc6MpIxqN-4" value="" style="endArrow=none;html=1;rounded=0;fontSize=8;entryX=1;entryY=0.5;entryDx=0;entryDy=0;exitX=-0.002;exitY=0.237;exitDx=0;exitDy=0;exitPerimeter=0;" parent="1" edge="1">
          <mxGeometry width="50" height="50" relative="1" as="geometry">
            <mxPoint x="29.75999999999999" y="200.28999999999996" as="sourcePoint" />
            <mxPoint x="-20" y="200" as="targetPoint" />
          </mxGeometry>
        </mxCell>
        <mxCell id="WVWYZ7rFV6EcUASi3WDG-12" style="edgeStyle=orthogonalEdgeStyle;rounded=0;orthogonalLoop=1;jettySize=auto;html=1;exitX=0.75;exitY=0;exitDx=0;exitDy=0;entryX=0.75;entryY=1;entryDx=0;entryDy=0;" edge="1" parent="1" source="WVWYZ7rFV6EcUASi3WDG-1" target="WVWYZ7rFV6EcUASi3WDG-8">
          <mxGeometry relative="1" as="geometry" />
        </mxCell>
        <mxCell id="WVWYZ7rFV6EcUASi3WDG-1" value="&lt;div&gt;Raspberry PI&lt;/div&gt;" style="rounded=0;whiteSpace=wrap;html=1;" vertex="1" parent="1">
          <mxGeometry x="270" y="-310" width="190" height="270" as="geometry" />
        </mxCell>
        <mxCell id="WVWYZ7rFV6EcUASi3WDG-3" value="&lt;div&gt;&lt;font style=&quot;font-size: 8px;&quot;&gt;USB&lt;/font&gt;&lt;/div&gt;" style="text;html=1;strokeColor=none;fillColor=none;align=center;verticalAlign=middle;whiteSpace=wrap;rounded=0;" vertex="1" parent="1">
          <mxGeometry x="330" width="35" height="10" as="geometry" />
        </mxCell>
        <mxCell id="WVWYZ7rFV6EcUASi3WDG-7" value="Power Supply" style="rounded=0;whiteSpace=wrap;html=1;" vertex="1" parent="1">
          <mxGeometry x="1140" y="30" width="90" height="120" as="geometry" />
        </mxCell>
        <mxCell id="WVWYZ7rFV6EcUASi3WDG-11" style="edgeStyle=orthogonalEdgeStyle;rounded=0;orthogonalLoop=1;jettySize=auto;html=1;exitX=0.25;exitY=1;exitDx=0;exitDy=0;entryX=0.25;entryY=0;entryDx=0;entryDy=0;" edge="1" parent="1" source="WVWYZ7rFV6EcUASi3WDG-8" target="WVWYZ7rFV6EcUASi3WDG-1">
          <mxGeometry relative="1" as="geometry">
            <mxPoint x="317.7142857142858" y="-370" as="targetPoint" />
          </mxGeometry>
        </mxCell>
        <mxCell id="WVWYZ7rFV6EcUASi3WDG-8" value="Power Supply" style="rounded=0;whiteSpace=wrap;html=1;" vertex="1" parent="1">
          <mxGeometry x="270" y="-470" width="190" height="60" as="geometry" />
        </mxCell>
        <mxCell id="WVWYZ7rFV6EcUASi3WDG-13" value="&lt;font style=&quot;font-size: 8px;&quot;&gt;VCC -&lt;/font&gt;" style="text;html=1;strokeColor=none;fillColor=none;align=center;verticalAlign=middle;whiteSpace=wrap;rounded=0;" vertex="1" parent="1">
          <mxGeometry x="320" y="-370" width="35" height="10" as="geometry" />
        </mxCell>
        <mxCell id="WVWYZ7rFV6EcUASi3WDG-14" value="&lt;font style=&quot;font-size: 8px;&quot;&gt;VCC +&lt;/font&gt;" style="text;html=1;strokeColor=none;fillColor=none;align=center;verticalAlign=middle;whiteSpace=wrap;rounded=0;" vertex="1" parent="1">
          <mxGeometry x="420" y="-370" width="35" height="10" as="geometry" />
        </mxCell>
      </root>
    </mxGraphModel>
  </diagram>
</mxfile>
